<svg xmlns="http://www.w3.org/2000/svg" width="729.56" height="512.57"><g stroke-width=".94"><path fill="#9b4609" d="M204.037 5.069c.578.473 1.123.849 1.727 1.398a20 20 0 0 1-1.555-1.334l.002.004c-.061-.027-.113-.041-.174-.068m1.727 1.398q.433.396.877.817a72 72 0 0 0-5.008-.553c3.77 2.744 8.02 4.206 12.594 4.881q1.49-.249 2.98-.469c-4.336-.756-8.22-2.186-11.443-4.676m-21.451.317c-2.353 3.396-3.369 8.375-3.764 13.764q.404-1.74.969-3.381c.437-3.663 1.336-7.362 2.795-10.383m80.242 3.46c2.457.415 4.868 1.03 7.214 1.907q5.454.98 10.87 2.299c-5.499-2.692-11.656-3.85-18.085-4.205zm-78.086 4.087c.309 1.37.991 2.96 2.119 4.8v-2.2l-.008-2.214c-.823-.062-1.522-.195-2.112-.386zm141.22 3.949c-4.433.537-9.133 1.193-13.848 1.629q1.373.085 2.748.138c3.752-.501 7.498-1.164 11.1-1.767m24.789 4.219-.004.04.006-.036zm-12.21 26.859c-5.333 8.727-9.928 17.167-7.818 25.592-1.55-8.257 2.768-16.814 7.819-25.592m-159.56 5.713c-.08 13.924-.948 28.393-.742 41.783.012-3.417.102-6.955.276-10.727 2.375-8.856 1.514-19.871.467-31.057zm166.18 51.324c-4.303 4.546-13.235 7.534-22.907 8.914 10.005-1.22 18.994-4.101 22.908-8.914m146.01.156c-10.401-.251-20.25-.26-29.825.375 10.085-.021 20.41-.375 30.697-.32zm-217.57 1.379a72.7 72.7 0 0 1 13.4 4.326c2.303 1.049 5.283 1.89 8.684 2.508-1.69-.401-3.226-.887-4.562-1.457a86.2 86.2 0 0 0-17.521-5.377m-35.24.039c-10.624 1.992-20.98 5.703-30.591 10.889 9.577-4.951 19.95-8.774 30.592-10.89m-30.591 10.889h-.002c.676 27.706-1.452 63.146-.329 86.836h.002c-1.123-23.69 1.005-59.13.329-86.836m-.329 86.836a149 149 0 0 0 10.094-2.803c1.657-.812 3.478-1.51 5.352-2.172-5.134 1.773-10.245 3.737-15.445 4.975zm316.4-96.73c11.76 2.043 23.052 5.759 33.408 12.393-8.26-7.285-20.637-10.652-33.408-12.393m-80.41.045a139 139 0 0 0-15.44 3.564c1.909-.39 3.823-.74 5.706-1.086 3.466-.851 6.773-1.65 9.735-2.478zm-264.15 9.763c.005 9.942-.62 18.581-.35 28.83.04-7.293.354-14.207 1.265-20.37a349 349 0 0 1-.914-8.46m219.13 7.856c-4.17 3.499-7.67 7.565-10.512 12.04a30.8 30.8 0 0 1 5.81-4.708c1.028-2.784 2.646-5.207 4.702-7.332m215.86 7.205c3.891.95 7.731 2.107 11.631 3.02a56 56 0 0 1 2.706-.3c-4.81-1.26-9.665-2.234-14.336-2.72m40.24 11.812c6.162 8.083 6.202 20.069 1.364 30.223 6.043-7.609 8.06-16.83.525-29.416a302 302 0 0 0-1.889-.807m-88.729 6.412c-.066.346-.129.69-.2 1.035.066-.343.139-.689.2-1.035m48.95 1.037c1.206.09 2.334.208 3.392.348-.042-.014-.104-.027-.144-.041a64 64 0 0 0-3.248-.307m10.94 2.106c.04.015.095.027.135.043-.023-.01-.04-.02-.064-.03-.022-.003-.05-.01-.07-.013m-18.607.154c-.053 1.335-.057 2.602.028 3.748-.085-1.145-.08-2.414-.028-3.748m-25.666 3.582q-.024.714-.029 1.451.022-.584.063-1.172zm26.112 3.221c.045.213.087.429.137.634-.05-.205-.092-.42-.137-.634m24.031.336c-.037.206-.09.413-.15.619.03-.102.066-.203.09-.305v-.004c.025-.104.042-.207.06-.31m-.478 1.509q-.169.375-.383.743l.02-.03.002-.002a8 8 0 0 0 .326-.627l.002-.004zm-1.101 1.787q-.104.139-.215.274l.014-.016c.03-.037.07-.072.1-.11.038-.047.064-.099.101-.147m-67.977.879c-1.123 3.5-2.248 6.86-3.142 9.983-.264 2.12-.552 4.436-.848 6.86l.057-.216c.827-6.086 2.374-11.436 3.933-16.627m66.852.377c-.425.415-.885.815-1.38 1.19.028-.022.061-.04.09-.06a14 14 0 0 0 1.29-1.13m-19.139.489.026.04c.101.143.217.26.324.393-.116-.145-.24-.278-.35-.433m.863 1.058q.015.02.032.037l.013.004-.044-.04zm16.178.12c-.351.237-.694.483-1.07.697.377-.215.718-.46 1.07-.698m-1.683 1.001c-.44.228-.876.461-1.338.653.462-.192.898-.425 1.338-.653m-2 .881c-.468.172-.934.351-1.414.48.48-.129.946-.308 1.414-.48m-1.752.55a15 15 0 0 1-1.79.349q.003 0 .005.002a15 15 0 0 0 1.785-.352zm-314.68 5.622c9.062-.555 22.558 4.322 35.484 8.46-12.93-4.143-26.43-9.024-35.484-8.46m35.484 8.46q1.945.622 3.865 1.214c.109.013.208.035.317.049-1.4-.43-2.761-.809-4.182-1.264zm-47.111-7.813c-1.176.136-2.345.34-3.516.52 1.172-.18 2.34-.384 3.516-.52m-10.113 1.777c-3.044.661-6.053 1.616-9.07 2.494 3.018-.879 6.026-1.833 9.07-2.494m303.37.705c1.646 4.919 2.685 9.671 2.533 14.64l.117-.28c.659-4.719-.534-9.371-2.283-14.05a16 16 0 0 1-.367-.31m-209.14 2.418c-.42 1.967-1.167 3.533-2.191 4.754 1.025-1.217 1.773-2.776 2.197-4.736zm-118.37 4.328c-9.09 3.399-18.152 7.027-27.23 10.549 9.078-3.521 18.14-7.15 27.23-10.549m137.98 1.143c.918 1.79 2.276 2.443 3.365 1.892-1.088.549-2.448-.105-3.365-1.892m-26.223 2.156c-.043.014-.09.023-.134.037.043-.014.09-.023.134-.037m-1.619.414c-.088.017-.18.029-.27.045.09-.016.182-.028.27-.045m-1.736.248q-.186.018-.373.031zm-2.191.07c.039.014.084.024.123.037.164 0 .316-.017.478-.021-.192.005-.405-.016-.601-.016m265.81 3.805a33 33 0 0 1-4.358.592c-1.865 1.461-4.405 2.806-6.139 3.18-2.606 4.525-5.154 9.247-6.96 13.729q-.075.21-.145.418a48 48 0 0 1 2.12-3.165c2.883-5.444 8.849-10.108 15.481-14.754zm-400.82 3.32c-2.044.783-4.125 1.254-6.174 1.99 1.468-.453 2.918-.92 4.457-1.324.573-.216 1.144-.446 1.717-.666m75.293 4.244a63 63 0 0 0-6.764.434c-7.69 1.008-14.845 3.393-21.697 6.545q3-1.186 6.05-2.193c9.356-3.294 18.95-5.189 28.96-4.51a63 63 0 0 0-6.55-.276zm248.07 5.254c-.32 3.365-.542 6.222-.606 8.196 1.69-.03 3.35.035 4.951.17-2.378-2.11-3.736-4.96-4.345-8.366m-376.44.641c-.344 1.584-.803 2.924-1.41 3.96-12.789 14.826-59.592 20.634-84.22 32.333-2.24 1.441-4.696 2.72-7.318 3.875 17.274-5.183 35.849-9.971 50.188-16.338 14.793-4.47 29.198-10.233 44.082-14.354 5.06 27.62-39.71 20.897-56.285 33.58-23.758 3.941-47.178 24.334-71.074 20.309 14.013 3.847 28.179 10.19 40.975 13.61 101.66 31.146 203.6 61.397 305.1 93.036 2.134.213 4.24.289 6.32.242-45.929-10.924-90.486-28.264-136.18-40.578-36.699-11.01-73.343-22.194-110.02-33.28-1.721-.413-3.098-.79-4.103-1.241a12504 12504 0 0 0-50.051-15.02c2.903-12.29 61.507-34.677 76.268-32.346-2.102 6.581 3.3 25.037-1.338 27.605 4.787 3.01 9.632 5.211 14.53 5.607-2.274-.21-4.783-1.67-7.49-4.76v-4.31c-11.638.708-.032-47.33-4.61-62.29-2.993-3.448-3.46-4.265-3.37-9.642zm98.88 1.562q-.835.396-1.665.805c.061-.027.124-.047.185-.074.503-.211.99-.478 1.48-.73m338.48 19.89c2.562 2.84 7.05 4.6 14.08 4.767-5.546-1.112-10.646-2.486-14.08-4.768m17.669 5.449c.714.636 1.639 1.224 2.734 1.771 6.68 1.644 13.249 3.482 20.197 5.346 10.055 1.846 20.476 3.475 25.43 6.105q1.058.215 2.137.426c3.13 4.246.84 6.54-4.184 7.492-8.21 2.515-17.904.965-27.719-1.779-6.716-1.337-12.834-3.101-16.5-4.869-4.73-3.043-17.177-3.328-24.992-5.816-2.743.184-5.17.884-7.195 2.279q.1.21.209.42c9.176-.219 14.719 5.672 17.449 12.828a16.34 16.34 0 0 1 1.923 8.297c.929 9.264-2.042 17.68-7.316 15.83a38 38 0 0 1-2.937 2.861c26.315-11.975 52.758-23.656 79.445-34.762l6.625.557c14.66.716 34.73 11.033 7.591 15.357-64.389 30.648-129.2 60.432-193.91 90.43-13.064 6.83-30.863 14.994-42.104 19.568-16.8 7.834-33.585 15.698-50.346 23.61a126 126 0 0 1-8.332-.972l5.735 1.695v35.332c7.484-4.63 16.249-8.058 20.285-8.955 92.56-41.375 182.61-88.309 275.08-130.04 3.88-1.493 5.934-2.181 6.765-2.224 5.525-7.155 10.772-14.562 5.987-26.662-5.651-27.212-49.352-18.983-71.424-29.234-5.33-2.399-13.142-3.539-20.631-4.897zm-227.34 8.052a40.5 40.5 0 0 1 5.326 4.547q.928.84 1.8 1.744a6.5 6.5 0 0 1 .583-1.23c-1.663-.417-2.21-1.632-1.188-3.936a67 67 0 0 1-6.521-1.125m-198.61 1.243q-1.038.141-2.086.25c.324.655.613 1.374.87 2.146.323-.85.722-1.654 1.215-2.396m-139.89 9.806c-17.704 4.493-37.761 7.318-51.725 15.082 5.277-2 11.728-3.343 19.37-4.187-3.876 1.023-7.607 2.296-11.104 3.838 7.296-1.203 14.966-.47 22.744 1.26a38 38 0 0 1-4.967-2.061c5.835-5.582 14.987-10.016 25.682-13.932m456.45 9.486a67 67 0 0 1-2.998 2.633 63 63 0 0 1-.688-.302 9.7 9.7 0 0 1 .928 3.271 107 107 0 0 1 2.758-5.602m-329.95 25.531.228.014.016-.006q-.122-.002-.245-.008zm320.92 7.204c.944 2.494 3.68 4.23 9.503 4.763a146 146 0 0 1-9.503-4.763m-517.15.187c-.2 2.704.066 5.114.683 7.297-.39-2.588-.619-5.016-.683-7.297m717.9 4.225c-4.168 4.51-9.357 11.45-4.934 17.992l.033-1.95c-.867-6.433 1.616-11.394 4.9-16.043zm-716.55 1.12q-.052 2.027.11 4.17c1.096 2.615 2.71 4.885 4.604 6.946a14 14 0 0 1-.713-1.328c-2.1-2.746-3.605-5.898-4.002-9.787m564.52 6.93a51 51 0 0 1-8.155.403c-1.194.355-2.298.7-3.297 1.039q-1.409-.432-2.834-.857c1.552 2.14 1.18 4.433-1.281 6.697q7.78-3.646 15.566-7.281zM9.395 315.99c4.025 3.544 8.59 6.6 12.076 10.076-3.478-3.547-7.893-6.54-11.705-9.967zm12.076 10.076c-.592 3.418-.537 7.319-.233 11.422-.303-4.103-.357-8.003.234-11.422zm514.77-3.547q-1.075.316-2.223.627c-19.103 8.37-37.932 17.564-56.79 26.652a93 93 0 0 1 3.177-1.18c18.634-8.638 37.232-17.372 55.836-26.1zM22.6 353.075c.171 2.293.371 4.603.332 6.763.04-2.166-.16-4.464-.332-6.763m436.51 5.383a1296 1296 0 0 1-10.201 4.765 6 6 0 0 1-.622 1.104c3.612-1.94 7.212-3.933 10.822-5.87zM22.9 361.81l-.028.393q.016-.196.028-.393m689.51 1.58-.086.002c-.615 1.086-.564 1.61-.235 1.79h.002q.056.028.12.046.025.007.052.012h.002c.86.154 2.668-1.057 1.809-1.6l-.041-.025-.018-.01a1 1 0 0 0-.133-.059l-.006-.002a2 2 0 0 0-.172-.053 3 3 0 0 0-.197-.04 6 6 0 0 0-1.098-.061zm-690.09 2.93c-.038.178-.088.348-.13.523.042-.175.092-.345.13-.523m419.43 1.43a24 24 0 0 1-3.467.302 684 684 0 0 1-20.68 8.862c8.317-1.772 16.29-5.192 24.146-9.164zm-421.28 3.757c-.122.225-.235.456-.368.674.133-.217.246-.449.368-.674m-5.391 5.565c-.126.072-.245.15-.375.22l.107-.054c.095-.052.176-.113.268-.166m8.084 2.13c1.169 2.287 1.323 2.59 0 0m674.63 1.311c-6.314 3.952-13.561 7.496-21.096 10.97 7.535-3.474 14.782-7.017 21.096-10.97m-686.52 1.64c.052.075.115.149.174.223-.059-.074-.122-.148-.174-.222m3.606 3.046c.075.047.134.093.21.14-.075-.047-.136-.093-.21-.14m2.347 1.373.004.002-.002-.002zm.004.002c3.903 2.107 7.063 3.363 10.533 4.847-3.469-1.484-6.625-2.739-10.53-4.847zm16.301 7.502.004.004c16.271 3.343 21.532 6.967 39.23 12.555l.612.129-.61-.131-.002-.002h-.006c-6.25-1.974-10.053-3.472-14.234-5.03-1.737-.647-4.281-1.496-5.914-2.09-2.78-1.01-5.514-1.95-8.57-2.847h-.002c-3.059-.897-6.44-1.752-10.508-2.588m608.06 14.654c-5.237 2.793-11.224 5.245-17.07 7.736 5.847-2.491 11.833-4.943 17.07-7.736m-509.09 15.719c20.173 5.079 46.486 16.102 73.297 22.967l.547.164q-.27-.083-.547-.166h-.002v-.002h-.004c-26.808-6.865-53.119-17.883-73.29-22.963m454.45 10.525c-4.276 1.646-8.423 3.365-12.107 5.677 3.685-2.311 7.831-4.031 12.107-5.677m-12.109 5.68a33 33 0 0 0-3.517 2.527c-4.112 1.41-7.93 3.09-11.584 4.88 3.653-1.79 7.473-3.469 11.584-4.878a33 33 0 0 1 3.517-2.53m-15.104 7.41c-7.307 3.582-13.952 7.609-20.939 10.805 6.988-3.196 13.632-7.222 20.94-10.805m-26.26 13.027a62 62 0 0 1-5.545 1.789l-.002.002a62 62 0 0 0 5.547-1.791m-15.555 7.838c-10.287 5.6-21.279 10.019-31.75 14.658 10.472-4.64 21.462-9.058 31.75-14.658m-237.04 2.529c8.566 2.462 14.822 4.77 25.037 7.656 20.072 6.006 44.004 14.08 61.361 20.03 4.486.85 9.145 2.32 13.941 3.983-2.397-.831-4.76-1.614-7.084-2.296h-.004c-2.327-.683-4.616-1.266-6.861-1.692-17.355-5.95-41.281-14.022-61.352-20.027l-.008-.002c-10.212-2.886-16.47-5.19-25.031-7.652zm100.34 31.67.002.002v-.002zm75.703-4.319c-9.602 4.874-19.29 9.378-29.762 13.004-5.306 1.014-10.58.94-15.789.207 5.208.733 10.484.808 15.79-.205 10.471-3.626 20.16-8.132 29.761-13.006m-75.699 4.32c4.798 1.665 9.733 3.521 14.77 5.145v-.002h-.002c-5.036-1.623-9.97-3.479-14.768-5.142zm14.77 5.145c2.518.812 5.061 1.565 7.625 2.207a119 119 0 0 1-7.623-2.207z"/><path fill="#421300" d="M5.122 277.852c138.86 38.926 276.18 82.863 414.45 123.66v35.332c99.731-43.46 196.15-94.222 295.36-138.99 20.849-8.02-11.04 7.197-1.898 20.71l-.69 41.11c9.597 6.046-1.159 17.912-8.554 16.736-14.99 11.368-38.132 19.021-57.232 29.396-12.376 8.171-32.173 13.006-42.577 21.742-10.772 6.327-23.744 8.259-32.653 15.632-16.445 5.638-28.227 15.609-43.392 19.7-12.91 8.724-27.796 14.52-41.758 20.706-20.25 10.21-38.061 20.974-59.004 28.227-21.214 4.05-41.935-9.264-59.883-12.671-17.357-5.95-41.288-14.024-61.36-20.03-12.32-3.481-18.06-6.17-30.195-9.233-24.47-8.286-44.913-14.957-69.93-22.466-26.81-6.865-53.123-17.887-73.296-22.966-22.538-5.341-38.443-13.34-59.73-17.816-17.698-5.588-22.96-9.21-39.23-12.554-3.863-2.527-33.304-11.904-18.918-16.736 15.654-8.298 4.066-35.146 6.856-51.277-9.399-9.586-25.635-15.113-18.353-36.144.222-4.03-.233-8.437 1.99-12.066zm707.22 85.541c-2.419 4.276 5.486-.172 0 0m-689.16 15.806c1.323 2.589 1.169 2.286 0 0"/><path fill="#fee98f" d="M368.297 223.522c23.713 14.691 49.932 15.179 56.57 43.682 32.034 24.429 64.134-24.512 94.51-5.154 16.085 12.012-21.938 39.417 12.196 39.041 25.765 4.564 29.261 14.842 2.46 22.053-41.042 17.984-80.815 39.768-122.34 56.146-47.604-10.829-93.65-28.943-140.91-41.679-54.752-16.426-109.38-33.24-164.17-49.54 2.904-12.289 61.509-34.678 76.27-32.347-2.386 7.468 4.889 30.223-3.802 27.711 31.308 22.726 28.269-24.919 31.095-40.184 35.8-10.963 64.99-41.965 104.08-40.704 19.723 1.384 37.814 10.507 54.046 20.975z"/><path fill="#632301" d="M199.987 5.425c18.431 15.939 49.865-3.133 73.785 7.546 25.688 6.17 52.735 11.599 78.305 1.752 5.897 27.04-38.662 49.374-11.045 72.59 30.527 24.913-29.124 34.136-48.184 25.995-27.057-11.59-57.839-8.216-83.355 5.55.676 27.707-1.452 63.147-.328 86.837 33.299-7.926 64.9-29.66 99.189-28.928 21.438-1.314 67.693 27.763 72.498 5.564-8.092-21.601 19.897-71.768 15.174-25.665.375 27.766 2.868 78.149 46.39 61.367 27.554-7.44 42.344-33.568 61.704-50.276 25.85 18.066-20.607 51.876-39.68 64.129-14.765 5.167-55.151 24.598-49.624 12.129-39.948-4.835-69.168-46.688-112.61-41.54-35.32 4.63-59.356 38.318-94.61 41.906 7.12 14.41-2.036 59.174-19.01 39.798V14.719c-13.862-3.112 5.285-14.985 11.407-9.298z"/><path fill="#007ac3" d="M451.887 106.772c36.425 1.225 77.545-5.877 109.3 16.053 14.735 15.215 4.003 37.7-.617 53.825-1.58 12.72-4.024 32.592-4.15 39.381-.714 17.485-24.358 42.805-33.176 50.026-31.618-26.46-71.826 31.933-103.48-2.608-20.458-31.09 31.03-15.406 44.448-32.48 17.877-11.997 62.852-43.492 40.842-62.325-23.331 20.486-45.618 55.022-82.788 52.748-34.792-6.515-21.674-50.676-27.628-75.1-5.557-30.912 40.253-32.422 57.25-39.52zm-50.38 66.015c-8.12 21.244 10.753 23.589 1.434 1.826l.467-1.826z"/><path fill="#fcd66c" d="M368.297 223.522c23.713 14.691 49.932 15.179 56.57 43.682 32.034 24.429 64.134-24.512 94.51-5.154 9.605 7.393-1.002 42.093-18.081 30.794-14.129-1.104-69.983-23.589-49.409-.11 5.346-5.382-20.306 13.854 6.334 9.306 11-1.401-.225 14.16-5.514 18.002-25.104 6.605-58.788-1.225-85.136-10.485-38.305-14.694-70.91-49.98-115.46-42.909-17.06-6.6-50.97 33.391-44.514.249-.004-12.06-3.759-26.49 12.73-28.126 36.63-12.761 70.362-48.163 112.15-32.791 12.82 3.903 24.67 10.333 35.83 17.542z"/><path fill="#a44a08" d="M5.122 277.852c138.86 38.926 276.18 82.863 414.45 123.66v35.332c15.44-9.554 36.333-13.987 9.901-1.64-25.776 9.678-51.952-11.517-77.569-15.503-114.33-34.724-228.34-70.448-343.07-103.88-8.979-6.678-4.499-27.465-3.707-37.973z"/><path fill="#f19324" d="M700.937 251.822c14.66.716 34.731 11.034 7.592 15.358-95.097 45.264-191.12 88.644-286.36 133.61-31.668-2.605-61.584-18.003-92.654-25.362-107.48-33.238-215.36-65.289-323.44-96.64 25.307-23.837 60.818-1.535 89.467 6.125 101.66 31.145 203.6 61.396 305.1 93.035 29.25 2.916 53.137-19.992 79.779-29.33 71.046-32.933 141.57-67.257 213.89-97.353z"/><path fill="#f41410" d="M288.347 15.936c18.8 14.188 55.794-8.222 64.678 5.295-8.75 13.89-29.17 43.604-30.418 49.279 10.167 9.248 44.993 36.927 9.506 39.05-38.401 10.573-81.435-24.948-115.91 4.359-15.83 6.957-5.824-19.455-8.615-29.068V12.863c26.902-5.655 54.285-4.258 80.758 3.074z"/><path fill="#fc6000" d="M627.627 136.852c50.131-6.765 39.182 60.351-1.79 58.252-12.101 18.375-19.297 39.999 9.112 39.034 8.096 9.689 62.379 8.706 50.24 20.589-24.334 11.461-64.987-20.596-80.263-8.484 38.214 12.12 15.69 47.014-13.8 50.198-24.07 22.72-55.737 10.08-76.62-1.792 4.391-27.487 27.985-47.043 37.019-67.789.39-25.884 40.239 9.197 38.21-24.875 13.412-21.252-22.83-40.24 2.434-64.864 8.465-10.398 24.878-2.176 35.459-.27zm-18.84 17.806c-2.194 37.633 51.214 1.23 6.993-1.629z"/><path fill="#813405" d="M58.357 356.882c107.63 29.584 212.86 67.263 319.5 100.11 12.817 7.604 11.643 49.994-11.928 30.591-100.17-32.765-200.94-63.842-301.38-95.73-12.322-3.487-3.554-24.608-6.191-34.97z"/><path fill="#753008" d="M681.917 342.012c-2.202 11.577 4.623 28.461-3.803 36.379-73.818 36.76-148.53 71.831-222.29 108.7-8.65-2.386-1.724-23.935-3.947-34.227 62.784-33.861 130.61-63.958 195.8-95.526 11.333-5.211 22.322-11.538 34.237-15.331z"/><path fill="#c38640" d="M712.337 359.672c9.596 6.046-1.16 17.912-8.555 16.736-14.99 11.368-38.132 19.021-57.232 29.396-12.376 8.171-32.173 13.006-42.577 21.742-10.772 6.327-23.744 8.259-32.653 15.632-16.445 5.638-28.227 15.609-43.392 19.7-12.91 8.724-27.796 14.52-41.758 20.706-20.25 10.21-38.061 20.974-59.004 28.227-21.214 4.05-41.935-9.264-59.883-12.671-17.357-5.95-41.288-14.024-61.36-20.03-12.32-3.481-18.06-6.17-30.195-9.233-24.47-8.286-44.913-14.957-69.93-22.466-26.81-6.865-53.123-17.887-73.296-22.966-22.538-5.341-38.443-13.34-59.73-17.816-17.698-5.588-22.96-9.21-39.23-12.554-3.863-2.527-33.304-11.904-18.918-16.736 10.806-5.366 9.045-24.66 9.412-.327 15.672 20.042 55.256 16.103 79.081 29.49 105.35 32.438 210.07 67.507 315.46 99.333 30.797-8.69 57.72-28.449 87.388-40.645 68.062-32.397 135.13-68.299 204.47-97.148l1.902-8.368zm0 3.72c-2.419 4.275 5.486-.173 0 0"/><path fill="#ee4600" d="M549.797 238.802c22.824.983 66.864.362 65.898 29.928 2.23 28.165-44.425 35.641-61.21 41.332-22.423-6.888-48.932-11.783-28.207-39.393 1.693-15.662 14.07-23.217 23.518-31.867z"/><path fill="#662300" d="M60.257 342.012c35.17 7.312 68.966 20.901 103.66 30.596 71.998 20.651 143.13 44.483 215.05 65.547 14.294 30.041-29.887 6.319-45.889 2.734-90.915-29.96-182.27-58.689-273.77-86.79.64-3.976-1.176-8.311.95-12.087z"/><path fill="#fcc400" d="M395.807 133.732c-.193 23.442 2.013 46.869 5.634 70.022 16.006 33.485 60.407 9.854 78.585-10.358 7.19-16.735 42.255-41.084 30.324-5.853-19.685 30.379-54.664 60.231-93.85 55.905-38.403-6.772-33.096-52.883-34.274-81.554-2.122-11.4 3.914-22.286 13.581-28.163z"/><path fill="#007dc6" d="M451.887 106.772c36.425 1.225 77.545-5.877 109.3 16.053 14.735 15.215 4.003 37.7-.617 53.825-1.58 12.72-4.024 32.592-4.15 39.381-.714 17.485-24.358 42.805-33.176 50.026-16.537-7.167-14.992-14.753-2.445-5.836 5.133 11.411 10.591-15.004 16.737-16.77 13.676-2.48 12.15-22.453 14.581-33.298.959-10.759 16.886-56.411-9.443-32.253-12.648 7.435-42.033 10.106-12.933 2.28 33.123-2.09 53.43-53.64 14.628-63.602-42.756-10.998-90.02-10.54-131.72 4.545-23.222 8.913-16.583 39.867-5.687 50.597 19.465 19.596 74.088 4.327 76.726 18.52-17.154 23.329-66.99 49.318-83.252 13.268 1.106-27.128-21.775-70.065 12.305-84.706 11.244-7.775 29.717-6.525 39.154-12.029zm-50.38 66.015c-8.12 21.244 10.753 23.589 1.434 1.826l.467-1.826z"/><path fill="#3addfc" d="M485.457 108.402c24.124.84 84.031-.125 76.46 33.08-28.478 23.594-69.62 25.854-105.39 24.336-27.16 4.547-86.88-27.292-39.678-47.343 21.755-7.816 45.518-10.522 68.605-10.073zm-31.666 10.46c-31.087-4.882-58.137 31.355-14.099 33.501 36.129 2.87 78.485 7.668 109.15-14.905-7.447-26.593-51.406-17.084-73.605-20.664-7.197-.18-14.487.062-21.451 2.068z"/><path fill="#009be5" d="M397.707 131.872c5.73 32.146 50.946 32.739 78.157 33.66 31.203-2.438 70.765-4.243 90.092-31.801 17.241 28.087-50.879 71.469-53.707 37.54-17.373-4.02-29.263 23.088-52.588 14.189-30.025 6.332-66.309-11.637-63.082-40.484.626-4.174-1.616-9.321 1.127-13.105z"/><path fill="#853604" d="M443.327 435.922c2.222 17.353.314 38.744.95 57.647-25.851 21.836-73.033 4.651-58.882-33.696-10.88-33.979 19.09-8.017 29.415-14.745 7.188 1.589 20.536-2.91 28.517-9.206"/><path fill="#d87523" d="M193.687 5.076c19.869 2.41-1.61 28.849 6.343 48.75.052 74.883.144 149.77.19 224.65-13.342 18.632-10.673-11.32-10.782-23.198l-.86-240.56c-10.157-.768-1.714-12.453 5.109-9.647z"/><path fill="#fe9b01" d="M621.387 137.342c28.402-.225 50.903 20.367 28.339 45.269-19.49 23.914-73.129-3.64-59.755-31.068-2.232-19.394 17.535-20.692 31.417-14.201zm-12.595 17.317c-2.194 37.633 51.214 1.23 6.993-1.629z"/><path fill="#448e00" d="M406.797 277.332c23.173 7.458 36.866 59.678-.633 42.329-20.47-2.583-81.754-14.06-42.742-37.028 12.985-6.98 29.095-11.786 43.374-5.301z"/><path fill="#d46f1f" d="M310.937 179.042c20.874 10.236 63.569 3.193 71.556 22.939-19.645 3.708-49.726-9.727-72.993-12.435-16.19-5.841-12.122-10.79-9.687.629-29.377 6.495-68.364 31.105-92.224 27.064 2.753-22.31 43.745-18.047 60.8-30.527 14.142-4.02 27.354-13.524 42.548-7.67"/><path fill="#a6460b" d="M206.637 7.284c-12.394-1.788-26.99-1.043-17.11 13.292v259.14c-13.186 3.344-.857-46.795-5.553-62.138-4.245-4.892-3.405-4.49-3.107-19.318 1.433-23.178-1.897-51.038 1.056-71.029-1.763-14.756-2.374-26.069-1.683-41.104 6.972-25.993-13.946-70.587 14.406-83.506l6.168 1.308z"/><path fill="#d8751f" d="M181.927 217.412c5.06 27.621-39.711 20.898-56.286 33.581-27.214 4.515-53.983 30.614-81.533 16.877 17.423-16.669 64.429-23.09 93.737-36.104 14.793-4.47 29.198-10.233 44.082-14.354"/><path fill="#fee37c" d="M401.507 255.542c6.834 6.76 17.87 20.162 25.946 24.175 13.909-2.268 20.518 1.759 24.434 13.017 5.346-5.382-20.306 13.854 6.334 9.307 11-1.402-.225 14.158-5.514 18.001-8.057 3.648-30.123 7.395-24.217-10.21 3.425-32.528-43.179-30.119-50.747-38.484-11.09-5.404 16.254-.647 19.962-3.719 8.418 9.208 9.594 5.817 4.753-3.719-5.16-2.39-16.816-8.573-.95-8.368z"/><path fill="#7a3105" d="M443.327 435.922c2.222 17.353.314 38.744.95 57.647-17.396 5.654-31.142 22.977-24.41-4.635 1.638-24.804-2.59-47.1-5.057-44.644 9.595 3.757 19.04-2.573 28.517-8.368"/><path fill="#feb308" d="M549.797 238.802c23.013.886 65.454.5 66.33 29.27 7.006 18.228-27.417 35.465-13.26 8.263 6.793-26.699-50.681-40.738-61.193-17.272-3.233 14.086-29.802 61.055-19.253 23.121 3.816-18.445 12.656-33.516 27.376-43.382"/><path fill="#fee78a" d="M396.757 336.432c8.59 1.317 18.217 10.868 3.802 14.877 10.495 9.673 3.902 7.713 13.308.93 9.73-5.067-5.107 24.535 10.456 1.86.202-4.295 12.603 7.065 10.487 1.889 2.639-21.081 30.373 12.844 1.87 12.057-14.385 6.6-29.148 1.192-39.923-.93-13.525.46 9.608 11.833-12.181 3.558-5.033-8.084.746-9.406-3.122-17.504-4.563 1.734-20.707-14.064-4.66-9.298 2.009 9.577 12.544-10.06 17.595-4.616.335 5.099 1.625-2.136 2.368-2.823"/><path fill="#f1ae32" d="M376.787 231.362c25.304 4.888 40.701 12.514 48.074 35.837 11.694 11.274 51.103 1.002 32.811 10.815 13.156 2.151 21.704 7.677 32.38 5.795 4.54 2.85 16.622-2.749 27.419-1.308-5.005 26.497-43.48-2.187-63.917-.37-20-2.578-34.543.8-40.645-18.226-9.44.598-13.192-11.687-17.967-10.228-.565-5.047-15.134-13.702-18.154-22.315z"/><path fill="#a13e0a" d="M204.737 10.074c2.73 38.321 1.116 80.971 2.107 120.92-.095 44.626 1.199 91.669-2.107 134.77v-52.068c-8.483-1.73-1.674-22.709-3.96-32.239l-.793-166.74c5.259.513 5.062.432 4.753-4.649z"/><path fill="#702a03" d="M25.087 333.642c31.413-7.171 23.528 43.096 17.831 53.176-30.954.1-12.36-36.047-17.831-53.176"/><path fill="#b0e724" d="M410.867 281.002c32.924 17.602-14.101 39.429-23.619 21.959 23.971 3.359-14.449-8.112-11.813-18.207 4.173-11.051 26.5-8.545 35.432-3.752"/><path fill="#cf6c1f" d="M608.727 231.362c28.437 2.793 46.657 11.113 77.4 17.123 9.984 13.546-35.171 7.223-48.402.844-8.41-5.41-41.23-2.107-28.999-17.967z"/><path fill="#d9881d" d="M209.497 252.752c-1.361 16.159 16.944 2.255 29.052 11.157 19.937-3.964 47.636 2.044 70.793 8.367 21.835.259 27.131 15.18 37.036 25.105-10.698.364-39.233-25.174-58.949-27.969-25.974-13.623-63.74 8.828-79.833 9.19-1.356-10.682 2.089-16.49 1.901-25.85"/><path fill="#fe5524" d="M242.767 11.759c31.741 2.417 71.384 13.077 102.66 11.332-18.879 10.771-47.453 6.29-69.608-.188-15.481-10.35-72.744 3.24-65.33-8.622 10.565-2.385 21.477-2.697 32.277-2.522z"/><path fill="#bd3308" d="M627.627 136.852c50.131-6.765 39.182 60.351-1.79 58.252-10.423 17.697-22.468 40.243 7.972 39.172 7.826 5.042-30.426-4.059-28.719 1.794 10.533-25.283 28.653-49.05-8.69-52.798-24.07-6.382-13.423-58.817 15.04-50.424 5.48.997 10.773 2.737 16.187 4.003zm-34.68 2.174c-14.379 25.562 7.055 54.086 36.648 52.313 27.916 1.81 45.375-50.678 7.918-50.872-14.305-.092-32.666-13.618-44.566-1.441"/><path fill="#f08827" d="M193.687 5.076c18.947 2.194-.888 28.449 6.328 48.207-.467 58.427 1.24 116.89-.981 175.29-2.221-18.95-.315-41.937-.95-62.437V15.646c-14.758-4.097-4.628 19.382-7.605 28.337v184.58c-2.305-18.95-.501-41.936-1.228-62.436l-.673-151.42c-10.157-.768-1.714-12.453 5.109-9.647z"/><path fill="#6e2a05" d="M709.487 305.742c-2.287 20.979 12.684 58.33-14.199 68.99-.33-10.324-11.411-47.459 10.397-53.183 6.076 1.261 2.03-12.223 3.802-15.806z"/><path fill="#fe8700" d="M568.807 275.992c15.36 16.659-24.35 41.407-35.965 22.551 8.412-9.074 19.469-24.525 35.965-22.551"/><path fill="#f55100" d="M656.257 148.612c13.684 29.52-28.056 57.456-52.008 35.626-31.739-22.751 28.941 6.857 33.458-.754 7.555-10.428 19.296-23.97 18.55-34.872"/><path fill="#521a00" d="M554.547 215.562c19.589-1.158 36.51 10.981 7.95 3.136-29.396 4.356 36.05 16.788 5.517 20.227-32.523-5.349-42.73 33.742-49.588 57.528-6.316-8.475 12.586-51.34 30.418-58.577 5.407-3.748.71-16.665 5.703-22.315z"/><path fill="#fdaf11" d="M603.977 188.592c18.49 1.39-15.553 67.923-19.806 47.494 4.55-16.585 14.086-31.355 19.806-47.494"/><path fill="#f85300" d="M619.187 191.382c9.217 14.255-21.435 39.567-13.44 54.83 26.966-.643 22.548 51.48 7.615 33.397 11.934-20.916-12.322-26.339-12.295-39.064 4.39-16.075 11.854-32.176 18.12-49.163"/><path fill="#8ac419" d="M407.327 277.742c16.11 4.163-52.014-4.726-25.898 15.621 21.136 4.334 12.02 2.85 12.472 12.389-9.405-6.383 2.88 10.47-17.556-2.647-32.274-12.664 12.028-39.344 30.982-25.363"/><path fill="#e24603" d="M603.977 145.822c26.334-10.889 50.082 36.897 11.842 27.293-13.514-2.549-24.712-11.083-11.842-27.293m4.812 8.833c-2.194 37.633 51.214 1.23 6.993-1.629z"/><path fill="#dbfa2e" d="M408.937 279.942c21.959 18.107-33.434 21.745-23.696 1.463-4.832-7.134 20.222-3.972 23.696-1.463"/><path fill="#bc5e1b" d="M596.367 187.662c-4.544 14.698-9.147 51.885-27.96 42.571-24.902-.463-10.703-21.163 6.618-9.42 13.872-1.63 13.611-23.782 21.342-33.15z"/><path fill="#52a302" d="M420.517 291.802c13.684 11.184 9.511 42.506-8.425 23.376-38.781-10.634 19.81-.1 8.425-23.376"/><path fill="#004f8d" d="M399.607 164.422c20.515 22.428 57.428 19.843 86.501 19.526-9.158 4.685-23.703 1.083-34.85 2.71-15.241 4.771-38.785-11.078-45.019-5.368 2.301-8.397-7.865-9.123-6.632-16.868"/><path fill="#0dc1f9" d="M487.357 114.912c15.812.574 56.892 2.88 57.382 13.71-15.957-10.038-32.503-9.074-50.314-10.707-26.958.177-66.992-2.3-81.51 21.404 3.286-28.392 52.703-22.776 74.441-24.407z"/><path fill="#fbd76c" d="M162.917 288.082c3.932 6.442 3.008 7.307 11.903 5.55 2.398 9.182-3.786 13.761-.415 14.311-20.035-6.61-26.485-1.513-11.488-19.86z"/><path fill="#476703" d="M412.917 282.502c20.925 9.216 25.699 54.927-7.082 37.095-8.08.816-33.704-8.6-9.078-3.622-6.821-15.027 15.385-.56 20.035 3.065 25.13 10.302 3.052-30.731-3.875-36.538"/><path fill="#fdfe99" d="M404.357 286.222c11.75 24.355-40.28-.976-4.436-1.474z"/><path fill="#fbce40" d="M530.787 347.592c-6.669 7.78-80.211 40.568-67.551 31.61 15.208-6.3 29.125-21.473 36.598-17.082 9.715-5.762 20.245-9.396 30.953-14.528"/><path fill="#c4f12a" d="M383.447 278.782c11.812 2.468-.66 22.974 17.11 18.596-13.775 4.222-39.586-10.489-17.11-18.596"/><path fill="#345702" d="M376.787 278.782c-23.689 8.296-26.807 18.192-12.724 27.774 17.433 3.968 27.318 11.754 1.733 3.141-33.54-3.936-9.558-30.795 10.991-30.916z"/><path fill="#fc9303" d="M569.337 245.082c15.532-2.819 43.108 16.137 34.462 24.534 5.546-18.921-46.469-18.315-34.462-24.534"/><path fill="#81cb0e" d="M420.517 291.802c11.089 13.712 5.59 32.915-2.785 19.966-17.682 1.14 13.393-11.615 2.785-19.966"/><path fill="#fcdf7c" d="M162.917 269.482c13.718 10.115 28.029 24.712 42.775 17.666-5.247 24.685-29.267-6.86-42.775-16.736z"/><path fill="#fdd35a" d="M619.187 142.102c13.826-5.685 38.51 20.191 31.368 14.694-4.887-1.58-23.458-9.334-31.368-14.694"/><path fill="#a8420b" d="M206.637 7.284c-18.441-5.526-25.885 5.133-20.589 24.79-8.091 10.455-8.992-52.976 20.589-24.79"/><path fill="#561e07" d="M37.437 264.832c-22.536 5.95-40.21 20.379-35.171 46.49-7.467-31.171 3.82-43.025 35.171-46.49"/><path fill="#74c012" d="M362.537 291.802c15.732 4.707 43.856 24.688 11.56 10.117-2.45-3.678-13.368-4.046-11.56-10.117"/><path fill="#bc2b07" d="M596.367 187.662c-.261 14.256-15.731 40.815-19.665 42.712 6.08-13.525 13.008-27.871 19.665-42.712"/><path fill="#fccd74" d="M189.527 7.284c29.969-1.424-6.203 19.542 0 0"/><path fill="#93480b" d="M401.507 196.032c14.544 2.258 3.81 31.308 0 4.649z"/><path fill="#fd7600" d="M592.567 171.862c19.332 4.24 10.858 21.207 0 0"/><path fill="#fa8602" d="M591.617 252.752c18.364 1.643 15.515 31.393 6.654 5.579-1.458-1.98-9.97-2.14-6.654-5.579"/><path fill="#fbb320" d="M280.787 245.312c18.086 3.984-13.813 13.243 0 0"/><path fill="#f3ae2d" d="M168.737 288.892c12.388 7.917-19.091 9.01 0 0"/><path fill="#feb80a" d="M608.727 198.822c.662 15.492-21.506 39.84-7.07 14.877-.351-8.524 6.566-6.846 7.07-14.877"/><path fill="#febd25" d="M603.977 191.382c9.343 2.273-13.81 30.999-.95 6.509-2.93-2.72-.188-4.479.95-6.509"/><path fill="#edeb0f" d="M509.867 168.142c6.575 15.74 4.523 8.94-3.802 2.79-12.317 9.404-6.087-8.538 3.802-2.79"/><path fill="#fcba1c" d="M374.887 342.012c6.378 14.073-18.349 2.132 0 0"/><path fill="#489f01" d="M363.487 289.942c-5.178 16.952-19.189-1.314 0 0"/><path fill="#fbae13" d="M352.077 261.932c16.71 9.547-16.853 7.123 0 0"/><path fill="#f7b12a" d="M253.337 246.122c13.715 5.723-17.893 8.486 0 0"/><path fill="#f8ae19" d="M204.737 293.662c20.105-.506-4.322 16.614 0 0"/><path fill="#fec637" d="M331.877 336.722c9.1 9.55-17.847 3.482 0 0"/><path fill="#9dea10" d="M390.117 275.882c33.699 1.744-35.934 6.182 0 0"/><path fill="#fdbb1f" d="M265.277 312.542c11.615 11.339-17.672 4.641 0 0"/><path fill="#f8fe6e" d="M398.657 284.362c-11.195 1.45-6.285 22.585-11.407 2.79l5.296-2.676z"/><path fill="#fecd49" d="M436.677 347.592c17.428-1.739-4.68 18.806 0 0"/><path fill="#fcbe28" d="M297.897 289.942c-.859 14.878-17.257-2.155 0 0"/><path fill="#fdbd23" d="M581.167 246.242c29.797 4.66 11.302 10.599 0 0"/><path fill="#febc1d" d="M409.107 358.742c18.575-.304-3.825 14.637 0 0"/><path fill="#efa626" d="M146.757 285.292c19.641-2.088-5.634 15.804 0 0"/><path fill="#fccd5a" d="M256.067 246.242c11.66 7.182-20.055 11.737.56 2.736l-.392-1.914z"/><path fill="#6dcb04" d="M420.517 291.802c13.374 22.061 2.987 27.141 0 0"/><path fill="#e8fb30" d="M388.197 278.782c16.68 1.2 12.132 10.333.668 4.577z"/><path fill="#fab115" d="M305.557 227.582c11.687 6.399-13.495 6.342 0 0"/><path fill="#feb91d" d="M598.277 209.052c2.02 12.329-16.115 26.208 0 0"/><path fill="#eb4a01" d="M624.947 151.692c21.166 9.014-24.642-1.526 0 0"/><path fill="#68b808" d="M417.667 305.742c11.143 9.352-15.423 6.035 0 0"/><path fill="#fbfe72" d="M398.657 285.292c16.174 2.356 1.394 18.042 4.269 2.756.69-2.986-2.846-1.837-4.269-2.756"/><path fill="#fdb20f" d="M332.707 252.632c10.437 6.739-14.111 6.484 0 0"/><path fill="#fdc738" d="M590.667 223.922c1.791 15.291-13.504 12.006 0 0"/><path fill="#c13806" d="M622.987 191.382c23.277-4.622-3.504 12.381-.732 5.152z"/><path fill="#f65600" d="M636.297 187.662c-21.513 9.264-16.212-3.391 0 0"/><path fill="#ec4b01" d="M610.627 168.142c16.13 4.578 27.812 9.973.95 3.72l-.483-1.894z"/><path fill="#e83e00" d="M607.067 146.402c2.183-.607-14.044 28.446-6.425 2.518l2.219-1.82z"/><path fill="#578902" d="M406.257 314.112c23.018.366-5.68 12.687 0 0"/><path fill="#eee580" d="M500.367 258.332c-2.787 7.607-25.304.879 0 0"/><path fill="#fee88b" d="M299.797 222.992c22.072 1.385-8.804 16.307 0 0"/><path fill="#53b502" d="M369.487 282.332c4.03 12.712-18.169.443 0 0"/><path fill="#ec4900" d="M579.257 229.502c9.457 17.339-11.679 14.411 0 0"/><path fill="#fe8600" d="M623.937 148.612c24.077 7.983 3.636 8.827 0 0"/><path fill="#77d506" d="M379.647 277.852c-5.888 11.81-19.123 2.062 0 0"/><path fill="#f28d27" d="M234.207 211.842c-18.292 11.731-24.208 3.35 0 0"/><path fill="#fecf46" d="M641.997 152.332c14.848 1.173 10.443 10.206 2.334 2.932z"/><path fill="#daf635" d="M387.247 285.292c-1.737 12.731 25.115 13.733.123 10.95-1.863-3.194-1.992-7.713-.123-10.95"/><path fill="#fdc229" d="M353.977 315.972c17.498.833-5.791 11.151 0 0"/><path fill="#fdc228" d="M480.407 330.852c3.952 13.24-15.058-1.284 0 0"/><path fill="#fee589" d="M287.437 244.382c12.338 19.12-20.825-8.582 0 0"/><path fill="#ca6514" d="M418.617 487.982c5.078 13.075-2.726 22.267 0 0"/><path fill="#fed65c" d="M396.757 336.432c12.356.815-7.556 15.176 0 0"/><path fill="#c5641c" d="M189.527 262.042c4.545 24.495-1.784 22.349 0 0"/></g></svg>